HIERARCHY
ROOT Hips
{
	OFFSET 0.000000 0.000000 0.000000
	CHANNELS 6 Xposition Yposition Zposition Zrotation Yrotation Xrotation 
	JOINT LHipJoint
	{
		OFFSET 0.000000 0.000000 0.000000
		CHANNELS 3 Zrotation Yrotation Xrotation
		JOINT LeftUpLeg
		{
			OFFSET 1.363060 -1.794630 0.839290
			CHANNELS 3 Zrotation Yrotation Xrotation
			JOINT LeftLeg
			{
				OFFSET 2.448110 -6.726130 0.000000
				CHANNELS 3 Zrotation Yrotation Xrotation
				JOINT LeftFoot
				{
					OFFSET 2.562200 -7.039590 0.000000
					CHANNELS 3 Zrotation Yrotation Xrotation
					JOINT LeftToeBase
					{
						OFFSET 0.157640 -0.433110 2.322550
						CHANNELS 3 Zrotation Yrotation Xrotation
						End Site
						{
							OFFSET 0.000000 0.000000 0.000000
						}
					}
				}
			}
		}
	}
	JOINT RHipJoint
	{
		OFFSET 0.000000 0.000000 0.000000
		CHANNELS 3 Zrotation Yrotation Xrotation
		JOINT RightUpLeg
		{
			OFFSET -1.305520 -1.794630 0.839290
			CHANNELS 3 Zrotation Yrotation Xrotation
			JOINT RightLeg
			{
				OFFSET -2.542530 -6.985550 0.000000
				CHANNELS 3 Zrotation Yrotation Xrotation
				JOINT RightFoot
				{
					OFFSET -2.568260 -7.056230 0.000000
					CHANNELS 3 Zrotation Yrotation Xrotation
					JOINT RightToeBase
					{
						OFFSET -0.164730 -0.452590 2.363150
						CHANNELS 3 Zrotation Yrotation Xrotation
						End Site
						{
							OFFSET 0.000000 0.000000 0.000000
						}
					}
				}
			}
		}
	}
	JOINT LowerBack
	{
		OFFSET 0.000000 0.000000 0.000000
		CHANNELS 3 Zrotation Yrotation Xrotation
		JOINT Spine
		{
			OFFSET 0.028270 2.035590 -0.193380
			CHANNELS 3 Zrotation Yrotation Xrotation
			JOINT Spine1
			{
				OFFSET 0.056720 2.048850 -0.042750
				CHANNELS 3 Zrotation Yrotation Xrotation
				JOINT Neck
				{
					OFFSET 0.000000 0.000000 0.000000
					CHANNELS 3 Zrotation Yrotation Xrotation
					JOINT Neck1
					{
						OFFSET -0.054170 1.746240 0.172020
						CHANNELS 3 Zrotation Yrotation Xrotation
						JOINT Head
						{
							OFFSET 0.104070 1.761360 -0.123970
							CHANNELS 3 Zrotation Yrotation Xrotation
							End Site
							{
								OFFSET 0.000000 0.000000 0.000000
							}
						}
					}
				}
				JOINT LeftShoulder
				{
					OFFSET 0.000000 0.000000 0.000000
					CHANNELS 3 Zrotation Yrotation Xrotation
					JOINT LeftArm
					{
						OFFSET 3.362410 1.200890 -0.311210
						CHANNELS 3 Zrotation Yrotation Xrotation
						JOINT LeftForeArm
						{
							OFFSET 4.983000 -0.000000 -0.000000
							CHANNELS 3 Zrotation Yrotation Xrotation
							JOINT LeftHand
							{
								OFFSET 3.483560 -0.000000 -0.000000
								CHANNELS 3 Zrotation Yrotation Xrotation
								JOINT LeftFingerBase
								{
									OFFSET 0.000000 0.000000 0.000000
									CHANNELS 3 Zrotation Yrotation Xrotation
									JOINT LeftHandIndex1
									{
										OFFSET 0.715260 -0.000000 -0.000000
										CHANNELS 3 Zrotation Yrotation Xrotation
										End Site
										{
											OFFSET 0.000000 0.000000 0.000000
										}
									}
								}
								JOINT LThumb
								{
									OFFSET 0.000000 0.000000 0.000000
									CHANNELS 3 Zrotation Yrotation Xrotation
									End Site
									{
										OFFSET 0.000000 0.000000 0.000000
									}
								}
							}
						}
					}
				}
				JOINT RightShoulder
				{
					OFFSET 0.000000 0.000000 0.000000
					CHANNELS 3 Zrotation Yrotation Xrotation
					JOINT RightArm
					{
						OFFSET -3.136600 1.374050 -0.404650
						CHANNELS 3 Zrotation Yrotation Xrotation
						JOINT RightForeArm
						{
							OFFSET -5.241900 -0.000000 -0.000000
							CHANNELS 3 Zrotation Yrotation Xrotation
							JOINT RightHand
							{
								OFFSET -3.444170 -0.000000 -0.000000
								CHANNELS 3 Zrotation Yrotation Xrotation
								JOINT RightFingerBase
								{
									OFFSET 0.000000 0.000000 0.000000
									CHANNELS 3 Zrotation Yrotation Xrotation
									JOINT RightHandIndex1
									{
										OFFSET -0.622530 -0.000000 -0.000000
										CHANNELS 3 Zrotation Yrotation Xrotation
										End Site
										{
											OFFSET 0.000000 0.000000 0.000000
										}
									}
								}
								JOINT RThumb
								{
									OFFSET 0.000000 0.000000 0.000000
									CHANNELS 3 Zrotation Yrotation Xrotation
									End Site
									{
										OFFSET 0.000000 0.000000 0.000000
									}
								}
							}
						}
					}
				}
			}
		}
	}
}
MOTION
Frames: 9
Frame Time: 0.008333
21.096431 17.662760 -0.654538 -1.388375 -81.613924 -3.073550 -0.558374 0.659585 1.207899 -21.420359 11.054058 11.016331 -1.373843 -0.483758 0.425895 -2.109833 9.570427 0.925641 0.014100 0.766600 2.106700 -3.615281 1.461671 -1.629239 10.028133 27.690910 -54.704026 -9.791523 -21.148437 60.839973 0.020448 -8.590753 -24.036219 -0.852500 5.888500 -16.461400 0.983443 -0.186515 8.397401 0.996211 0.109507 -1.641043 -3.374526 -0.234761 -1.672658 2.932754 1.521287 -2.311850 5.274876 0.830161 6.056738 -1.654300 0.561200 1.091100 -5.740761 -5.257366 1.295159 -76.491355 4.814056 7.925747 1.992442 -10.507433 -0.871589 -1.886438 -1.170848 -8.350424 15.877297 9.334570 3.260500 -7.125000 0.000000 0.000000 -8.024700 40.507100 0.895500 7.504986 4.397787 0.041834 82.674145 -11.885837 10.777818 -6.135843 16.688510 -1.823549 1.773528 0.057829 12.263977 -20.070732 -8.153445 3.390300 7.125000 0.000000 0.000000 4.423000 -39.110300 0.643300 
21.045249 17.663398 -0.649760 -0.852312 -81.647933 -3.598570 -0.568977 0.632391 1.240061 -21.473098 11.088142 11.163104 -1.368619 -0.491167 0.431529 -2.129439 9.622137 0.698545 0.013300 0.745900 2.050000 -3.411744 1.588006 -1.747342 9.585752 27.706088 -53.437327 -8.542129 -20.503623 57.204076 0.040949 -8.540725 -23.985498 -0.900000 6.046200 -16.918700 0.960088 -0.188164 8.359861 0.990379 0.112512 -1.646265 -3.410740 -0.240399 -1.651729 2.933347 1.525633 -2.328481 5.260343 0.837767 6.057869 -1.660700 0.564700 1.093600 -5.743615 -5.258548 1.295324 -76.499966 4.832445 7.857099 1.982839 -10.488101 -0.869660 -1.889972 -1.169698 -8.292894 15.905859 9.344853 3.269800 -7.125000 0.000000 0.000000 -7.999600 40.520500 0.890000 7.502545 4.385389 0.038401 82.659106 -11.938412 10.679190 -6.097673 16.648380 -1.815717 1.780421 0.061247 12.348431 -20.101880 -8.239196 3.432900 7.125000 0.000000 0.000000 4.402400 -39.211500 0.629300 
20.992261 17.664566 -0.644557 -0.241485 -81.677156 -4.203563 -0.580467 0.607266 1.270259 -21.535293 11.120763 11.325411 -1.363345 -0.498168 0.436639 -2.148874 9.675292 0.469356 0.012400 0.719900 1.978500 -3.205146 1.710390 -1.858357 9.116186 27.763594 -52.165690 -7.379123 -19.809378 53.728981 0.056810 -8.483934 -23.964070 -0.940700 6.177500 -17.300300 0.926179 -0.191144 8.317264 0.984955 0.112533 -1.650911 -3.440807 -0.246892 -1.628664 2.930930 1.531473 -2.340622 5.249357 0.847118 6.061119 -1.664700 0.569400 1.095700 -5.746348 -5.257880 1.295389 -76.520663 4.855880 7.764527 1.966463 -10.458807 -0.866383 -1.894500 -1.167636 -8.219121 15.942219 9.356270 3.280900 -7.125000 0.000000 0.000000 -7.967300 40.535300 0.883500 7.500989 4.372029 0.035497 82.633910 -11.995239 10.571824 -6.055024 16.602614 -1.806601 1.786486 0.061883 12.461560 -20.137776 -8.297354 3.464800 7.125000 0.000000 0.000000 4.374600 -39.281900 0.617800 
20.937363 17.665734 -0.639035 0.450814 -81.706507 -4.899353 -0.592427 0.585039 1.297626 -21.607461 11.158150 11.507459 -1.357733 -0.504672 0.441331 -2.168466 9.730853 0.236025 0.011300 0.687200 1.888400 -2.999804 1.827020 -1.960522 8.623891 27.867470 -50.903985 -6.321007 -19.089226 50.466697 0.051466 -8.374780 -23.994991 -0.964900 6.254300 -17.524100 0.883509 -0.190653 8.274263 0.978710 0.116129 -1.653929 -3.471063 -0.250922 -1.598581 2.928462 1.533968 -2.360246 5.242214 0.851916 6.067567 -1.666400 0.572100 1.101300 -5.750137 -5.255508 1.295973 -76.544489 4.870131 7.640317 1.937662 -10.410147 -0.860529 -1.899925 -1.163230 -8.100083 15.976821 9.365397 3.290700 -7.125000 0.000000 0.000000 -7.936000 40.546700 0.877700 7.499647 4.359076 0.032677 82.608749 -12.051986 10.446304 -6.010128 16.553555 -1.796694 1.791235 0.061631 12.598677 -20.161463 -8.345535 3.490400 7.125000 0.000000 0.000000 4.357400 -39.340400 0.609100 
20.880552 17.666052 -0.633407 1.191573 -81.738458 -5.651611 -0.603925 0.565917 1.321677 -21.683234 11.202380 11.708046 -1.351712 -0.510756 0.445923 -2.187376 9.785984 -0.002869 0.010200 0.650900 1.788800 -2.799755 1.935219 -2.051920 8.132216 28.005956 -49.675051 -5.379542 -18.366454 47.460425 0.040466 -8.267075 -24.070247 -0.978100 6.295700 -17.644700 0.828247 -0.190272 8.226257 0.973170 0.118362 -1.656090 -3.493508 -0.254929 -1.567318 2.931075 1.537071 -2.371100 5.236233 0.856844 6.078539 -1.670100 0.575400 1.107000 -5.753097 -5.250853 1.296694 -76.573313 4.891831 7.510039 1.902112 -10.353763 -0.853384 -1.903919 -1.159156 -7.966855 15.993702 9.380179 3.299000 -7.125000 0.000000 0.000000 -7.922600 40.563400 0.872900 7.499569 4.344985 0.029786 82.581499 -12.120026 10.311645 -5.965821 16.504664 -1.786734 1.794886 0.060104 12.755845 -20.181210 -8.377176 3.508400 7.125000 0.000000 0.000000 4.342300 -39.380100 0.602700 
20.821725 17.664884 -0.627885 1.960561 -81.778060 -6.440245 -0.614190 0.550389 1.342029 -21.759343 11.257665 11.925922 -1.345128 -0.516393 0.450599 -2.205775 9.840722 -0.247510 0.008900 0.609100 1.673900 -2.609441 2.032799 -2.131550 7.667320 28.159354 -48.497953 -4.562157 -17.665159 44.749036 0.028025 -8.170889 -24.175250 -0.979200 6.299100 -17.654700 0.767300 -0.185754 8.175084 0.967398 0.125050 -1.657037 -3.513985 -0.256017 -1.532999 2.937895 1.538701 -2.378864 5.232668 0.859313 6.092387 -1.673700 0.577700 1.113100 -5.757396 -5.244524 1.298883 -76.595668 4.902371 7.364645 1.847111 -10.270252 -0.842203 -1.908069 -1.152729 -7.796108 15.998220 9.388656 3.302400 -7.125000 0.000000 0.000000 -7.919500 40.571700 0.870900 7.500780 4.330902 0.026981 82.552850 -12.190984 10.172852 -5.919390 16.452848 -1.776070 1.798480 0.058424 12.908617 -20.202251 -8.402848 3.524200 7.125000 0.000000 0.000000 4.325300 -39.413200 0.596800 
20.760986 17.661699 -0.622363 2.746977 -81.828105 -7.252864 -0.622581 0.538876 1.358805 -21.834111 11.325750 12.159852 -1.337968 -0.521623 0.455520 -2.222761 9.892393 -0.499921 0.007700 0.566500 1.556800 -2.432671 2.118180 -2.199204 7.259663 28.297440 -47.387831 -3.868092 -17.004757 42.354677 0.038137 -8.161103 -24.287999 -0.981600 6.306500 -17.676300 0.704471 -0.176897 8.123611 0.961487 0.136787 -1.657213 -3.533053 -0.253663 -1.497816 2.947776 1.538350 -2.387749 5.229504 0.858878 6.110579 -1.678300 0.579100 1.122600 -5.761163 -5.236613 1.300188 -76.617381 4.920891 7.259681 1.795251 -10.193958 -0.831247 -1.908413 -1.147662 -7.639387 15.968385 9.396571 3.298800 -7.125000 0.000000 0.000000 -7.949500 40.577800 0.873100 7.502589 4.317410 0.024252 82.525684 -12.262869 10.019981 -5.871651 16.398460 -1.765041 1.801872 0.057179 13.059056 -20.217877 -8.430068 3.539700 7.125000 0.000000 0.000000 4.313400 -39.447800 0.591500 
20.698229 17.656071 -0.617160 3.500930 -81.893106 -8.038256 -0.627902 0.531221 1.372039 -21.899540 11.410118 12.407070 -1.330077 -0.526585 0.461043 -2.238622 9.941354 -0.759488 0.006500 0.520400 1.430000 -2.271459 2.189573 -2.255097 6.938741 28.392186 -46.355701 -3.291465 -16.400503 40.285339 0.065171 -8.208899 -24.384711 -0.982600 6.309900 -17.686200 0.648687 -0.163824 8.067448 0.955612 0.154080 -1.656891 -3.552796 -0.247634 -1.463593 2.959147 1.537270 -2.388946 5.226544 0.857408 6.130025 -1.683200 0.580000 1.130400 -5.764623 -5.227027 1.301025 -76.637977 4.950114 7.195769 1.747265 -10.125474 -0.820518 -1.905574 -1.143703 -7.503894 15.912816 9.399668 3.288400 -7.125000 0.000000 0.000000 -8.003500 40.577500 0.879200 7.504908 4.303626 0.021992 82.498679 -12.337010 9.858956 -5.819882 16.338802 -1.753049 1.805703 0.056248 13.193961 -20.237130 -8.456267 3.555500 7.125000 0.000000 0.000000 4.297900 -39.481700 0.585800 
20.633348 17.648213 -0.611957 4.227447 -81.977426 -8.804384 -0.629918 0.527827 1.382374 -21.956120 11.515839 12.669728 -1.321306 -0.531361 0.467244 -2.253179 9.987149 -1.025453 0.005300 0.472300 1.297800 -2.126771 2.247118 -2.300526 6.723961 28.417239 -45.399817 -2.820083 -15.859281 38.527210 0.111231 -8.315072 -24.448314 -0.993300 6.342900 -17.782700 0.605370 -0.144960 8.011367 0.949163 0.179167 -1.656336 -3.578368 -0.236876 -1.435193 2.972750 1.534859 -2.375539 5.223159 0.854093 6.150929 -1.688200 0.580100 1.135300 -5.767504 -5.215997 1.301190 -76.660511 4.995444 7.156055 1.706646 -10.068529 -0.811135 -1.901021 -1.141562 -7.378141 15.845453 9.409232 3.278000 -7.125000 0.000000 0.000000 -8.070200 40.584400 0.885200 7.506540 4.289942 0.020131 82.478371 -12.415879 9.674235 -5.764041 16.273564 -1.740151 1.809844 0.055697 13.324476 -20.256443 -8.487500 3.573600 7.125000 0.000000 0.000000 4.282800 -39.521300 0.579500 
